<?xml version="1.0" encoding="UTF-8" standalone="no"?>
<!-- Created with Inkscape (http://www.inkscape.org/) -->

<svg
   width="233.57675"
   height="82.536003"
   viewBox="0 0 233.57675 82.536003"
   version="1.1"
   id="svg5"
   inkscape:version="1.2.2 (b0a8486541, 2022-12-01)"
   sodipodi:docname="texto barbie.svg"
   xmlns:inkscape="http://www.inkscape.org/namespaces/inkscape"
   xmlns:sodipodi="http://sodipodi.sourceforge.net/DTD/sodipodi-0.dtd"
   xmlns="http://www.w3.org/2000/svg"
   xmlns:svg="http://www.w3.org/2000/svg">
  <sodipodi:namedview
     id="namedview7"
     pagecolor="#ffffff"
     bordercolor="#111111"
     borderopacity="1"
     inkscape:showpageshadow="0"
     inkscape:pageopacity="0"
     inkscape:pagecheckerboard="1"
     inkscape:deskcolor="#d1d1d1"
     inkscape:document-units="px"
     showgrid="false"
     inkscape:zoom="0.58759578"
     inkscape:cx="164.22855"
     inkscape:cy="85.09251"
     inkscape:window-width="1920"
     inkscape:window-height="1011"
     inkscape:window-x="0"
     inkscape:window-y="0"
     inkscape:window-maximized="1"
     inkscape:current-layer="layer1" />
  <defs
     id="defs2" />
  <g
     inkscape:label="Capa 1"
     inkscape:groupmode="layer"
     id="layer1"
     transform="translate(-203.21162,-459.01932)">
    <g
       aria-label="Barbie"
       id="text504"
       style="font-weight:bold;font-size:96px;font-family:Barbie;-inkscape-font-specification:'Barbie Bold';text-align:center;text-anchor:middle;fill:#ff5bcb;fill-rule:evenodd;stroke:#ffffff;stroke-width:9;stroke-linecap:round;paint-order:stroke markers fill">
      <path
         d="m 261.08762,481.47132 q 0,10.848 -11.904,17.664 8.256,3.936 8.256,13.536 0,9.696 -7.392,16.608 -7.968,7.392 -20.64,7.392 -5.664,0 -11.712,-1.728 -5.088,-1.536 -7.968,-3.36 l 9.12,-39.84 q 1.056,-4.992 0.48,-8.064 l 13.44,-4.224 -3.744,15.648 h 2.016 q 6.336,0 10.752,-1.824 3.264,-1.344 5.472,-4.128 2.592,-3.264 2.592,-7.584 0,-9.312 -13.632,-9.312 -11.328,0 -17.472,7.488 -3.168,3.936 -4.128,7.968 -0.48,1.632 -0.768,6.912 -3.648,-4.224 -3.84,-4.416 -2.304,-3.072 -2.304,-5.472 0,-8.736 8.064,-14.784 8.352,-6.432 21.408,-6.432 11.136,0 17.856,5.472 6.048,5.088 6.048,12.48 z m -15.36,30.912 q 0,-8.64 -10.464,-9.216 -2.976,-0.192 -8.16,0.672 l -5.088,22.272 q 4.032,1.344 7.488,1.344 7.2,0 11.904,-4.896 4.32,-4.512 4.32,-10.176 z"
         id="path181" />
      <path
         d="m 301.69565,500.67132 q -0.864,4.416 -6.528,27.552 -1.056,4.32 0.192,7.68 h -10.464 l 0.096,-4.128 q -4.992,4.992 -12,4.992 -6.24,0 -9.6,-3.072 -3.264,-3.072 -3.264,-8.352 0,-5.664 4.512,-10.56 2.88,-3.072 7.2,-4.8 2.784,-1.056 9.696,-2.688 5.088,-1.152 6.624,-1.92 3.264,-1.536 3.456,-4.512 0.192,-3.168 -4.224,-3.168 -3.168,0 -6.912,1.92 -4.704,2.304 -7.968,6.72 -2.304,-3.84 -2.304,-6.144 0,-4.416 6.144,-7.488 5.76,-2.88 12.768,-2.88 12.864,0 12.864,8.544 0,1.056 -0.288,2.304 z m -13.152,12.48 q -5.472,1.728 -10.848,3.552 -6.624,2.88 -6.624,7.68 0,1.536 1.248,2.88 1.344,1.248 3.168,1.248 5.568,-0.096 9.024,-4.608 3.168,-4.128 4.032,-10.752 z"
         id="path183" />
      <path
         d="m 332.7997,497.40732 q -5.952,0 -10.368,3.552 -2.208,1.728 -3.168,4.224 -0.864,1.824 -2.304,7.872 -1.056,4.128 -3.744,15.36 -0.864,3.84 0.192,7.488 h -13.152 q 2.016,-3.072 3.168,-8.064 2.112,-8.544 5.856,-25.056 0.672,-3.168 0.672,-5.184 0,-1.824 -0.768,-3.648 l 11.712,-3.744 -1.152,6.048 q 4.512,-6.432 8.64,-6.432 2.496,0 3.456,1.92 0.672,1.344 0.96,5.664 z"
         id="path185" />
      <path
         d="m 370.33574,502.39932 q 0,7.584 -2.688,14.784 -3.552,9.408 -10.368,14.688 -6.72,5.184 -14.784,5.184 -3.744,0 -8.448,-1.152 -4.608,-1.152 -6.816,-2.688 l 11.52,-49.824 q 0.864,-3.552 -0.576,-6.528 l 13.152,-4.128 -12.576,54.624 q 2.112,0.768 4.032,0.768 6.528,0 11.808,-7.488 5.376,-7.584 5.376,-17.376 0,-4.704 -3.552,-4.704 -1.92,0 -4.128,2.4 -2.208,2.304 -2.88,4.896 -2.688,-3.552 -2.688,-6.624 0,-3.648 3.648,-6.432 3.648,-2.784 7.872,-2.784 5.952,0 9.216,3.744 2.88,3.264 2.88,8.64 z"
         id="path187" />
      <path
         d="m 393.37574,480.99132 q 0,2.592 -1.728,4.704 -1.632,2.112 -4.128,2.112 -5.568,0 -5.568,-5.664 0,-2.88 1.824,-4.896 1.92,-2.112 4.512,-2.112 5.088,0 5.088,5.856 z m -2.4,9.408 -9.024,39.264 q -0.864,3.84 0.48,6.24 h -13.632 q 2.112,-1.92 2.688,-4.416 3.648,-14.688 6.72,-28.704 1.152,-5.184 -0.096,-8.256 z"
         id="path189" />
      <path
         d="m 432.25568,507.58332 -28.416,14.88 q 0.768,2.304 2.88,3.936 2.304,1.92 5.088,1.92 4.32,0 8.256,-4.224 3.936,-4.224 5.76,-10.752 4.416,3.168 4.416,6.816 0,4.896 -5.184,10.272 -6.144,6.432 -14.592,6.432 -8.64,0 -13.536,-5.76 -4.32,-5.28 -4.32,-13.44 0,-10.464 6.336,-18.72 7.104,-9.024 17.856,-9.024 7.584,0 11.712,5.088 4.128,4.992 3.744,12.576 z m -9.984,-3.936 q 0,-2.304 -1.632,-4.032 -1.536,-1.824 -3.84,-1.824 -5.088,0 -8.928,4.992 -3.264,4.416 -4.32,10.56 z"
         id="path191" />
    </g>
  </g>
</svg>
